<svg xmlns="http://www.w3.org/2000/svg" xmlns:xlink="http://www.w3.org/1999/xlink" width="5000" zoomAndPan="magnify" viewBox="0 0 3750 3749.999967" height="5000" preserveAspectRatio="xMidYMid meet" version="1.0"><defs><g/><clipPath id="17d3566cf3"><path d="M 234.824219 331.292969 L 3515.324219 331.292969 L 3515.324219 3611.792969 L 234.824219 3611.792969 Z M 234.824219 331.292969 " clip-rule="nonzero"/></clipPath><clipPath id="2ebd9f0e4e"><path d="M 3515.324219 1971.617188 C 3515.324219 1065.691406 2780.921875 331.292969 1874.996094 331.292969 C 969.070312 331.292969 234.671875 1065.691406 234.671875 1971.617188 C 234.671875 2877.542969 969.070312 3611.945312 1874.996094 3611.945312 C 2780.921875 3611.945312 3515.324219 2877.542969 3515.324219 1971.617188 Z M 3515.324219 1971.617188 " clip-rule="nonzero"/></clipPath><clipPath id="86397043d4"><path d="M 2887.121094 929.355469 C 2768.210938 813.859375 2633.867188 721.476562 2484.085938 652.199219 C 2330.089844 580.976562 2168.246094 538.230469 1998.566406 523.960938 L 2029.984375 150.28125 C 2243.625 168.242188 2447.46875 222.097656 2641.507812 311.839844 C 2735.4375 355.285156 2825.113281 406.421875 2910.542969 465.246094 C 2995.246094 523.578125 3074.53125 588.613281 3148.394531 660.355469 Z M 1832.300781 519.40625 C 1661.214844 524.332031 1496.757812 558.140625 1338.929688 620.835938 C 1186.066406 681.558594 1047.25 766.144531 922.476562 874.585938 L 676.480469 591.546875 C 753.9375 524.226562 836.390625 463.875 923.835938 410.496094 C 1012.226562 356.535156 1104.445312 310.480469 1200.488281 272.328125 C 1399.316406 193.34375 1606.324219 150.757812 1821.507812 144.5625 Z M 803.488281 990.496094 C 691.660156 1112.550781 603.351562 1249.308594 538.558594 1400.773438 C 471.796875 1556.84375 433.738281 1720.117188 424.386719 1890.585938 L 49.949219 1870.042969 C 61.71875 1655.515625 109.664062 1449.929688 193.78125 1253.289062 C 234.453125 1158.207031 282.929688 1067.15625 339.21875 980.128906 C 394.960938 893.945312 457.550781 812.957031 526.992188 737.167969 Z M 424.628906 2056.9375 C 434.476562 2227.332031 473.007812 2390.464844 540.222656 2546.332031 C 605.464844 2697.632812 694.1875 2834.152344 806.386719 2955.894531 L 530.636719 3210.035156 C 460.960938 3134.433594 398.125 3053.613281 342.117188 2967.574219 C 285.574219 2880.707031 236.824219 2789.792969 195.875 2694.824219 C 111.1875 2498.4375 62.648438 2293.023438 50.253906 2078.578125 Z M 925.714844 3071.457031 C 1050.789062 3179.515625 1189.832031 3263.679688 1342.847656 3323.949219 C 1500.863281 3386.183594 1665.449219 3419.519531 1836.601562 3423.949219 L 1826.902344 3798.820312 C 1611.648438 3793.25 1404.488281 3751.265625 1205.421875 3672.859375 C 1109.277344 3634.992188 1016.929688 3589.207031 928.386719 3535.511719 C 840.804688 3482.394531 758.195312 3422.296875 680.550781 3355.21875 Z M 2002.839844 3418.90625 C 2172.4375 3404.144531 2334.128906 3360.929688 2487.910156 3289.257812 C 2637.511719 3219.535156 2771.609375 3126.746094 2890.195312 3010.886719 L 3152.257812 3279.117188 C 3078.589844 3351.089844 2999.480469 3416.367188 2914.929688 3474.957031 C 2829.667969 3534.035156 2740.132812 3585.4375 2646.324219 3629.15625 C 2452.554688 3719.464844 2248.902344 3773.910156 2035.355469 3792.496094 Z M 3002.222656 2888.25 C 3105.976562 2760.832031 3185.699219 2620.269531 3241.390625 2466.5625 C 3299.011719 2307.523438 3327.824219 2142.542969 3327.824219 1971.617188 C 3327.824219 1799.941406 3298.765625 1634.277344 3240.644531 1474.625 C 3184.476562 1320.324219 3104.097656 1179.339844 2999.511719 1051.664062 L 3289.605469 814.027344 C 3421.160156 974.621094 3522.300781 1152.0625 3593.023438 1346.347656 C 3666.222656 1547.429688 3702.824219 1755.855469 3702.824219 1971.617188 C 3702.824219 2186.433594 3666.535156 2393.996094 3593.960938 2594.300781 C 3523.839844 2787.847656 3423.523438 2964.761719 3293.011719 3125.035156 Z M 3002.222656 2888.25 " clip-rule="nonzero"/></clipPath><linearGradient x1="-0.00000209527" gradientTransform="matrix(0, 51.260193, -51.260193, 0, 3515.322785, 331.291597)" y1="32" x2="63.997023" gradientUnits="userSpaceOnUse" y2="32" id="18cd03e30e"><stop stop-opacity="1" stop-color="rgb(100%, 19.198608%, 19.198608%)" offset="0"/><stop stop-opacity="1" stop-color="rgb(100%, 19.320679%, 19.12384%)" offset="0.0078125"/><stop stop-opacity="1" stop-color="rgb(100%, 19.566345%, 18.974304%)" offset="0.015625"/><stop stop-opacity="1" stop-color="rgb(100%, 19.812012%, 18.824768%)" offset="0.0234375"/><stop stop-opacity="1" stop-color="rgb(100%, 20.057678%, 18.673706%)" offset="0.03125"/><stop stop-opacity="1" stop-color="rgb(100%, 20.301819%, 18.52417%)" offset="0.0390625"/><stop stop-opacity="1" stop-color="rgb(100%, 20.547485%, 18.374634%)" offset="0.046875"/><stop stop-opacity="1" stop-color="rgb(100%, 20.793152%, 18.223572%)" offset="0.0546875"/><stop stop-opacity="1" stop-color="rgb(100%, 21.038818%, 18.074036%)" offset="0.0625"/><stop stop-opacity="1" stop-color="rgb(100%, 21.282959%, 17.9245%)" offset="0.0703125"/><stop stop-opacity="1" stop-color="rgb(100%, 21.528625%, 17.773438%)" offset="0.078125"/><stop stop-opacity="1" stop-color="rgb(100%, 21.774292%, 17.623901%)" offset="0.0859375"/><stop stop-opacity="1" stop-color="rgb(100%, 22.019958%, 17.474365%)" offset="0.09375"/><stop stop-opacity="1" stop-color="rgb(100%, 22.265625%, 17.324829%)" offset="0.101562"/><stop stop-opacity="1" stop-color="rgb(100%, 22.509766%, 17.173767%)" offset="0.109375"/><stop stop-opacity="1" stop-color="rgb(100%, 22.755432%, 17.024231%)" offset="0.117188"/><stop stop-opacity="1" stop-color="rgb(100%, 23.001099%, 16.874695%)" offset="0.125"/><stop stop-opacity="1" stop-color="rgb(100%, 23.246765%, 16.723633%)" offset="0.132812"/><stop stop-opacity="1" stop-color="rgb(100%, 23.490906%, 16.574097%)" offset="0.140625"/><stop stop-opacity="1" stop-color="rgb(100%, 23.736572%, 16.424561%)" offset="0.148437"/><stop stop-opacity="1" stop-color="rgb(100%, 23.982239%, 16.273499%)" offset="0.15625"/><stop stop-opacity="1" stop-color="rgb(100%, 24.227905%, 16.123962%)" offset="0.164062"/><stop stop-opacity="1" stop-color="rgb(100%, 24.472046%, 15.974426%)" offset="0.171875"/><stop stop-opacity="1" stop-color="rgb(100%, 24.717712%, 15.82489%)" offset="0.179688"/><stop stop-opacity="1" stop-color="rgb(100%, 24.963379%, 15.673828%)" offset="0.1875"/><stop stop-opacity="1" stop-color="rgb(100%, 25.209045%, 15.524292%)" offset="0.195312"/><stop stop-opacity="1" stop-color="rgb(100%, 25.453186%, 15.374756%)" offset="0.203125"/><stop stop-opacity="1" stop-color="rgb(100%, 25.698853%, 15.223694%)" offset="0.210937"/><stop stop-opacity="1" stop-color="rgb(100%, 25.944519%, 15.074158%)" offset="0.21875"/><stop stop-opacity="1" stop-color="rgb(100%, 26.190186%, 14.924622%)" offset="0.226562"/><stop stop-opacity="1" stop-color="rgb(100%, 26.434326%, 14.77356%)" offset="0.234375"/><stop stop-opacity="1" stop-color="rgb(100%, 26.679993%, 14.624023%)" offset="0.242187"/><stop stop-opacity="1" stop-color="rgb(100%, 26.925659%, 14.474487%)" offset="0.25"/><stop stop-opacity="1" stop-color="rgb(100%, 27.171326%, 14.324951%)" offset="0.257812"/><stop stop-opacity="1" stop-color="rgb(100%, 27.416992%, 14.173889%)" offset="0.265625"/><stop stop-opacity="1" stop-color="rgb(100%, 27.661133%, 14.024353%)" offset="0.273437"/><stop stop-opacity="1" stop-color="rgb(100%, 27.906799%, 13.874817%)" offset="0.28125"/><stop stop-opacity="1" stop-color="rgb(100%, 28.152466%, 13.723755%)" offset="0.289062"/><stop stop-opacity="1" stop-color="rgb(100%, 28.398132%, 13.574219%)" offset="0.296875"/><stop stop-opacity="1" stop-color="rgb(100%, 28.642273%, 13.424683%)" offset="0.304687"/><stop stop-opacity="1" stop-color="rgb(100%, 28.887939%, 13.273621%)" offset="0.3125"/><stop stop-opacity="1" stop-color="rgb(100%, 29.133606%, 13.124084%)" offset="0.320312"/><stop stop-opacity="1" stop-color="rgb(100%, 29.379272%, 12.974548%)" offset="0.328125"/><stop stop-opacity="1" stop-color="rgb(100%, 29.623413%, 12.825012%)" offset="0.335938"/><stop stop-opacity="1" stop-color="rgb(100%, 29.86908%, 12.67395%)" offset="0.34375"/><stop stop-opacity="1" stop-color="rgb(100%, 30.114746%, 12.524414%)" offset="0.351562"/><stop stop-opacity="1" stop-color="rgb(100%, 30.360413%, 12.374878%)" offset="0.359375"/><stop stop-opacity="1" stop-color="rgb(100%, 30.604553%, 12.223816%)" offset="0.367187"/><stop stop-opacity="1" stop-color="rgb(100%, 30.85022%, 12.07428%)" offset="0.375"/><stop stop-opacity="1" stop-color="rgb(100%, 31.095886%, 11.924744%)" offset="0.382812"/><stop stop-opacity="1" stop-color="rgb(100%, 31.341553%, 11.773682%)" offset="0.390625"/><stop stop-opacity="1" stop-color="rgb(100%, 31.585693%, 11.624146%)" offset="0.398437"/><stop stop-opacity="1" stop-color="rgb(100%, 31.83136%, 11.474609%)" offset="0.40625"/><stop stop-opacity="1" stop-color="rgb(100%, 32.077026%, 11.325073%)" offset="0.414062"/><stop stop-opacity="1" stop-color="rgb(100%, 32.322693%, 11.174011%)" offset="0.421875"/><stop stop-opacity="1" stop-color="rgb(100%, 32.566833%, 11.024475%)" offset="0.429688"/><stop stop-opacity="1" stop-color="rgb(100%, 32.8125%, 10.874939%)" offset="0.4375"/><stop stop-opacity="1" stop-color="rgb(100%, 33.058167%, 10.723877%)" offset="0.445312"/><stop stop-opacity="1" stop-color="rgb(100%, 33.303833%, 10.574341%)" offset="0.453125"/><stop stop-opacity="1" stop-color="rgb(100%, 33.5495%, 10.424805%)" offset="0.460937"/><stop stop-opacity="1" stop-color="rgb(100%, 33.79364%, 10.273743%)" offset="0.46875"/><stop stop-opacity="1" stop-color="rgb(100%, 34.039307%, 10.124207%)" offset="0.476562"/><stop stop-opacity="1" stop-color="rgb(100%, 34.284973%, 9.97467%)" offset="0.484375"/><stop stop-opacity="1" stop-color="rgb(100%, 34.53064%, 9.825134%)" offset="0.492187"/><stop stop-opacity="1" stop-color="rgb(100%, 34.77478%, 9.674072%)" offset="0.5"/><stop stop-opacity="1" stop-color="rgb(100%, 35.020447%, 9.524536%)" offset="0.507812"/><stop stop-opacity="1" stop-color="rgb(100%, 35.266113%, 9.375%)" offset="0.515625"/><stop stop-opacity="1" stop-color="rgb(100%, 35.51178%, 9.223938%)" offset="0.523438"/><stop stop-opacity="1" stop-color="rgb(100%, 35.75592%, 9.074402%)" offset="0.53125"/><stop stop-opacity="1" stop-color="rgb(100%, 36.001587%, 8.924866%)" offset="0.539063"/><stop stop-opacity="1" stop-color="rgb(100%, 36.247253%, 8.773804%)" offset="0.546875"/><stop stop-opacity="1" stop-color="rgb(100%, 36.49292%, 8.624268%)" offset="0.554687"/><stop stop-opacity="1" stop-color="rgb(100%, 36.737061%, 8.474731%)" offset="0.5625"/><stop stop-opacity="1" stop-color="rgb(100%, 36.982727%, 8.325195%)" offset="0.570312"/><stop stop-opacity="1" stop-color="rgb(100%, 37.228394%, 8.174133%)" offset="0.578125"/><stop stop-opacity="1" stop-color="rgb(100%, 37.47406%, 8.024597%)" offset="0.585937"/><stop stop-opacity="1" stop-color="rgb(100%, 37.718201%, 7.875061%)" offset="0.59375"/><stop stop-opacity="1" stop-color="rgb(100%, 37.963867%, 7.723999%)" offset="0.601562"/><stop stop-opacity="1" stop-color="rgb(100%, 38.209534%, 7.574463%)" offset="0.609375"/><stop stop-opacity="1" stop-color="rgb(100%, 38.4552%, 7.424927%)" offset="0.617188"/><stop stop-opacity="1" stop-color="rgb(100%, 38.699341%, 7.273865%)" offset="0.625"/><stop stop-opacity="1" stop-color="rgb(100%, 38.945007%, 7.124329%)" offset="0.632812"/><stop stop-opacity="1" stop-color="rgb(100%, 39.190674%, 6.974792%)" offset="0.640625"/><stop stop-opacity="1" stop-color="rgb(100%, 39.43634%, 6.825256%)" offset="0.648438"/><stop stop-opacity="1" stop-color="rgb(100%, 39.682007%, 6.674194%)" offset="0.65625"/><stop stop-opacity="1" stop-color="rgb(100%, 39.926147%, 6.524658%)" offset="0.664063"/><stop stop-opacity="1" stop-color="rgb(100%, 40.171814%, 6.375122%)" offset="0.671875"/><stop stop-opacity="1" stop-color="rgb(100%, 40.41748%, 6.22406%)" offset="0.679688"/><stop stop-opacity="1" stop-color="rgb(100%, 40.663147%, 6.074524%)" offset="0.6875"/><stop stop-opacity="1" stop-color="rgb(100%, 40.907288%, 5.924988%)" offset="0.695313"/><stop stop-opacity="1" stop-color="rgb(100%, 41.152954%, 5.773926%)" offset="0.703125"/><stop stop-opacity="1" stop-color="rgb(100%, 41.398621%, 5.62439%)" offset="0.710938"/><stop stop-opacity="1" stop-color="rgb(100%, 41.644287%, 5.474854%)" offset="0.71875"/><stop stop-opacity="1" stop-color="rgb(100%, 41.888428%, 5.325317%)" offset="0.726563"/><stop stop-opacity="1" stop-color="rgb(100%, 42.134094%, 5.174255%)" offset="0.734375"/><stop stop-opacity="1" stop-color="rgb(100%, 42.379761%, 5.024719%)" offset="0.742187"/><stop stop-opacity="1" stop-color="rgb(100%, 42.625427%, 4.875183%)" offset="0.75"/><stop stop-opacity="1" stop-color="rgb(100%, 42.869568%, 4.724121%)" offset="0.757812"/><stop stop-opacity="1" stop-color="rgb(100%, 43.115234%, 4.574585%)" offset="0.765625"/><stop stop-opacity="1" stop-color="rgb(100%, 43.360901%, 4.425049%)" offset="0.773437"/><stop stop-opacity="1" stop-color="rgb(100%, 43.606567%, 4.273987%)" offset="0.78125"/><stop stop-opacity="1" stop-color="rgb(100%, 43.850708%, 4.124451%)" offset="0.789062"/><stop stop-opacity="1" stop-color="rgb(100%, 44.096375%, 3.974915%)" offset="0.796875"/><stop stop-opacity="1" stop-color="rgb(100%, 44.342041%, 3.825378%)" offset="0.804688"/><stop stop-opacity="1" stop-color="rgb(100%, 44.587708%, 3.674316%)" offset="0.8125"/><stop stop-opacity="1" stop-color="rgb(100%, 44.833374%, 3.52478%)" offset="0.820312"/><stop stop-opacity="1" stop-color="rgb(100%, 45.077515%, 3.375244%)" offset="0.828125"/><stop stop-opacity="1" stop-color="rgb(100%, 45.323181%, 3.224182%)" offset="0.835938"/><stop stop-opacity="1" stop-color="rgb(100%, 45.568848%, 3.074646%)" offset="0.84375"/><stop stop-opacity="1" stop-color="rgb(100%, 45.814514%, 2.92511%)" offset="0.851563"/><stop stop-opacity="1" stop-color="rgb(100%, 46.058655%, 2.774048%)" offset="0.859375"/><stop stop-opacity="1" stop-color="rgb(100%, 46.304321%, 2.624512%)" offset="0.867188"/><stop stop-opacity="1" stop-color="rgb(100%, 46.549988%, 2.474976%)" offset="0.875"/><stop stop-opacity="1" stop-color="rgb(100%, 46.795654%, 2.325439%)" offset="0.882813"/><stop stop-opacity="1" stop-color="rgb(100%, 47.039795%, 2.174377%)" offset="0.890625"/><stop stop-opacity="1" stop-color="rgb(100%, 47.285461%, 2.024841%)" offset="0.898438"/><stop stop-opacity="1" stop-color="rgb(100%, 47.531128%, 1.875305%)" offset="0.90625"/><stop stop-opacity="1" stop-color="rgb(100%, 47.776794%, 1.724243%)" offset="0.914062"/><stop stop-opacity="1" stop-color="rgb(100%, 48.020935%, 1.574707%)" offset="0.921875"/><stop stop-opacity="1" stop-color="rgb(100%, 48.266602%, 1.425171%)" offset="0.929687"/><stop stop-opacity="1" stop-color="rgb(100%, 48.512268%, 1.274109%)" offset="0.9375"/><stop stop-opacity="1" stop-color="rgb(100%, 48.757935%, 1.124573%)" offset="0.945312"/><stop stop-opacity="1" stop-color="rgb(100%, 49.002075%, 0.975037%)" offset="0.953125"/><stop stop-opacity="1" stop-color="rgb(100%, 49.247742%, 0.8255%)" offset="0.960937"/><stop stop-opacity="1" stop-color="rgb(100%, 49.493408%, 0.674438%)" offset="0.96875"/><stop stop-opacity="1" stop-color="rgb(100%, 49.739075%, 0.524902%)" offset="0.976562"/><stop stop-opacity="1" stop-color="rgb(100%, 49.983215%, 0.375366%)" offset="0.984375"/><stop stop-opacity="1" stop-color="rgb(100%, 50.228882%, 0.224304%)" offset="0.992188"/><stop stop-opacity="1" stop-color="rgb(100%, 50.474548%, 0.0747681%)" offset="1"/></linearGradient></defs><g clip-path="url(#17d3566cf3)"><g clip-path="url(#2ebd9f0e4e)"><g clip-path="url(#86397043d4)"><path fill="url(#18cd03e30e)" d="M 3515.324219 331.292969 L 234.824219 331.292969 L 234.824219 3611.792969 L 3515.324219 3611.792969 Z M 3515.324219 331.292969 " fill-rule="nonzero"/></g></g></g><g fill="#ffffff" fill-opacity="1"><g transform="translate(1061.501477, 2885.737688)"><g><path d="M 798.1875 30.609375 C 657.082031 30.609375 520.648438 11.484375 388.890625 -26.765625 C 257.140625 -65.023438 151.3125 -114.753906 71.40625 -175.953125 L 211.65625 -487.078125 C 288.164062 -430.972656 379.125 -385.921875 484.53125 -351.921875 C 589.9375 -317.921875 695.34375 -300.921875 800.75 -300.921875 C 918.050781 -300.921875 1004.753906 -318.34375 1060.859375 -353.1875 C 1116.960938 -388.039062 1145.015625 -434.367188 1145.015625 -492.171875 C 1145.015625 -534.679688 1128.4375 -569.957031 1095.28125 -598 C 1062.132812 -626.050781 1019.632812 -648.578125 967.78125 -665.578125 C 915.925781 -682.585938 845.796875 -701.289062 757.390625 -721.6875 C 621.378906 -753.988281 510.019531 -786.289062 423.3125 -818.59375 C 336.613281 -850.894531 262.238281 -902.75 200.1875 -974.15625 C 138.132812 -1045.5625 107.109375 -1140.765625 107.109375 -1259.765625 C 107.109375 -1363.472656 135.160156 -1457.40625 191.265625 -1541.5625 C 247.367188 -1625.71875 331.945312 -1692.445312 445 -1741.75 C 558.050781 -1791.050781 696.179688 -1815.703125 859.390625 -1815.703125 C 973.296875 -1815.703125 1084.648438 -1802.097656 1193.453125 -1774.890625 C 1302.265625 -1747.691406 1397.472656 -1708.59375 1479.078125 -1657.59375 L 1351.578125 -1343.921875 C 1186.660156 -1437.429688 1021.75 -1484.1875 856.84375 -1484.1875 C 741.238281 -1484.1875 655.804688 -1465.484375 600.546875 -1428.078125 C 545.296875 -1390.671875 517.671875 -1341.367188 517.671875 -1280.171875 C 517.671875 -1218.960938 549.546875 -1173.484375 613.296875 -1143.734375 C 677.054688 -1113.984375 774.390625 -1084.660156 905.296875 -1055.765625 C 1041.304688 -1023.460938 1152.660156 -991.160156 1239.359375 -958.859375 C 1326.066406 -926.554688 1400.445312 -875.550781 1462.5 -805.84375 C 1524.550781 -736.132812 1555.578125 -641.78125 1555.578125 -522.78125 C 1555.578125 -420.769531 1527.097656 -327.6875 1470.140625 -243.53125 C 1413.191406 -159.382812 1327.765625 -92.65625 1213.859375 -43.34375 C 1099.953125 5.957031 961.394531 30.609375 798.1875 30.609375 Z M 798.1875 30.609375 "/></g></g></g></svg>